<svg width="375" height="39" viewBox="0 0 375 39" fill="none" xmlns="http://www.w3.org/2000/svg">
<rect width="375" height="39" fill="white"/>
<g filter="url(#filter0_d_465_37)">
<path d="M379.56 22.3875C379.793 28.0943 380.068 32.7622 380.176 32.7605L-2.3799 38.6539L-3.66804 7.04964C-3.61326 8.3938 -3.56012 8.46613 -2.54318 8.59912C-1.9572 8.67268 -1.20813 8.86407 -0.885112 9.02191C-0.558237 9.1797 1.17761 9.33229 2.98949 9.36101C6.48582 9.41805 9.20154 9.93073 10.7477 10.8295C11.7838 11.4318 13.2217 11.7565 14.8978 11.7708C15.8864 11.7768 16.3891 11.6063 17.2015 10.9826C19.6315 9.12823 22.6917 8.24105 23.2534 9.23289C23.6239 9.89496 26.4715 11.937 27.6322 12.3769C28.5655 12.7307 28.646 12.7176 29.6537 12.0532C33.9661 9.20944 37.0299 7.84319 39.1713 7.8102C40.0394 7.79682 40.3923 7.93061 40.6574 8.3725C40.9972 8.94066 41.0864 8.95109 46.1453 8.9817C51.5787 9.01362 52.3903 8.93976 52.3684 8.4021C52.3443 7.81255 53.9542 7.52583 56.1325 7.73532C57.237 7.83865 58.1364 7.83423 58.1318 7.72104C58.1171 7.36023 60.0521 7.47436 61.9942 7.95177L63.8855 8.41344L64.6417 7.9275C65.3453 7.47541 67.0372 7.21338 69.7865 7.12855C70.3687 7.11014 71.8181 7.05478 73.0091 7.00576C74.6087 6.941 75.2873 7.01313 75.6303 7.28393C76.0293 7.60106 76.7442 7.616 80.9128 7.40076L85.7324 7.14954L89.2444 5.88729C91.1736 5.19451 92.9339 4.62231 93.15 4.61898C93.3699 4.61559 94.1068 4.98178 94.7893 5.43376C95.8646 6.14633 98.002 6.96288 99.2249 7.1281C99.4385 7.15784 99.9974 7.32621 100.464 7.50307C101.491 7.8931 103.675 7.66597 104.92 7.03801C105.763 6.61207 109.037 6.026 110.711 6.00021C111.193 5.99278 112.534 6.39686 113.693 6.89812C116.15 7.95989 116.828 8.02495 116.794 7.19251C116.735 5.73516 120.166 4.84934 122.193 5.79973C123.074 6.21561 123.155 6.21436 124.069 5.80622C125.07 5.35898 127.279 4.80111 128.109 4.78833C128.375 4.78423 128.996 5.25838 129.491 5.84303C129.982 6.42774 131.064 7.40449 131.896 8.01462C133.281 9.03154 133.551 9.12412 135.083 9.1076C136.967 9.08802 139.482 8.27767 140.666 7.30848C141.664 6.49083 142.465 6.54456 144.987 7.60295C147.01 8.44958 147.153 8.47568 147.406 8.02818C147.754 7.40221 150.428 7.35631 152.344 7.94267L153.708 8.36054L155.417 7.56025C158.607 6.067 159.177 5.95203 162.555 6.13831C166.251 6.34095 167.712 6.67002 170.411 7.91917C172.741 8.99704 174.317 9.11906 176.871 8.419C177.654 8.20402 178.464 8.09007 178.672 8.16238C179.169 8.34113 183.991 7.66986 183.981 7.42461C183.967 7.08031 185.508 7.19579 187.079 7.65532C188.99 8.2158 189.306 8.21092 189.587 7.61668C189.978 6.79186 190.847 7.07815 192.487 8.57487C194.151 10.0924 194.68 10.6718 195.331 10.7279C195.703 10.7599 196.118 10.619 196.808 10.3842C196.983 10.3249 197.173 10.2606 197.387 10.1913C198.602 9.79263 200.016 9.14555 200.532 8.75296L201.472 8.03766L203.704 9.47334L205.937 10.909L208.617 10.3698C210.091 10.0734 211.46 9.73377 211.656 9.61277C212.439 9.13349 213.07 9.44941 214.443 11.021C215.961 12.7556 216.944 13.1888 218.492 12.8039C218.977 12.6832 219.98 12.5757 220.725 12.5642C221.744 12.5485 222.3 12.37 223 11.8378C223.506 11.4477 224.728 10.839 225.71 10.4841C227.216 9.93937 227.915 9.83894 230.112 9.84757C233.209 9.86121 233.774 9.62126 234.966 7.78596C235.409 7.10663 235.821 6.51273 235.889 6.46685C235.953 6.42104 237.114 6.69338 238.473 7.06887C240.875 7.73741 241.03 7.74918 244.212 7.5043C246.01 7.3657 247.763 7.17588 248.106 7.08328C248.568 6.95582 248.801 7.08202 249.022 7.57178C249.349 8.31003 251.993 11.1386 252.348 11.1332C252.472 11.1313 252.763 10.9711 252.99 10.7788C253.408 10.4255 254.024 10.3806 259.708 10.3025C262.486 10.262 265.573 10.5991 265.587 10.941C265.591 11.0354 266.435 11.6571 267.462 12.3209L269.329 13.5286L272.078 13.3423C275.49 13.1151 275.879 13.0171 276.405 12.261C276.806 11.6908 276.94 11.6652 278.852 11.7914C280.892 11.9252 282.247 12.3786 282.269 12.9328C282.305 13.7982 286.419 14.7235 287.549 14.1209C287.889 13.9387 288.258 13.8977 288.441 14.0199C288.611 14.1353 289.684 14.8667 290.823 15.6444C292.69 16.9182 293.078 17.0703 294.731 17.177C295.742 17.244 296.966 17.4587 297.449 17.6566C298.29 17.9976 298.408 17.9722 299.807 17.1601C303.077 15.2598 304.718 15.1661 308.031 16.6866C309.109 17.1796 310.099 17.4971 310.237 17.3911C310.372 17.2852 311.03 16.3926 311.701 15.4101C313.165 13.2473 313.418 13.024 314.425 13.0085C314.853 13.0019 316.304 12.5996 317.643 12.1141L320.082 11.2318L321.717 11.6644C324.192 12.32 325.933 12.4253 326.927 11.9782C327.393 11.7681 327.766 11.4532 327.759 11.2763C327.73 10.5712 332.826 8.47759 334.64 8.44966C335.508 8.43628 340.274 10.1845 341.89 11.1106C342.412 11.4069 343.274 11.6202 343.918 11.6102C345.184 11.5907 347.042 10.7645 347.02 10.2316C347.01 9.97692 347.251 9.91893 347.88 10.0178C348.362 10.0953 349.023 10.1984 349.345 10.2453C349.671 10.2946 350.537 10.2175 351.269 10.0765C352.376 9.85886 352.67 9.88029 353.003 10.1984C354.626 11.7497 357.184 12.8288 358.09 12.3452C358.434 12.1629 358.901 12.151 359.629 12.3073C360.206 12.4306 361.429 12.5203 362.348 12.5062C363.656 12.486 364.283 12.6226 365.238 13.1436C367.378 14.3046 369.576 14.233 369.526 13.0044C369.514 12.7214 369.708 12.3597 369.956 12.2002C370.641 11.7602 373.38 11.81 374.736 12.287C375.785 12.6554 376.064 12.6677 376.863 12.3793C377.373 12.1992 378.092 12.0394 378.463 12.0314C379.095 12.0122 379.164 12.66 379.56 22.3875ZM379.696 16.2503L380.369 32.7576L380.176 32.7605C380.284 32.7589 380.066 25.3293 379.696 16.2503Z" fill="white"/>
</g>
<path d="M378.127 28.6571C378.637 35.0249 379.139 40.2352 379.246 40.2354L0.0245071 39.4308L-2.80157 4.16544C-2.68138 5.66531 -2.62512 5.74699 -1.60975 5.91489C-1.02484 6.00821 -0.272358 6.23607 0.0558201 6.4183C0.387822 6.60053 2.11733 6.80415 3.91618 6.87111C7.38747 7.00213 10.1067 7.62616 11.6846 8.65819C12.7419 9.34973 14.1843 9.73954 15.8478 9.78779C16.8288 9.81355 17.3191 9.63306 18.0945 8.9533C20.4143 6.93242 23.4067 6.00217 24.0124 7.11896C24.4125 7.86435 27.3374 10.1963 28.5105 10.7092C29.4536 11.1216 29.5329 11.1086 30.4999 10.3872C34.6387 7.29936 37.6112 5.83499 39.7339 5.83949C40.5945 5.84132 40.9512 5.9973 41.2358 6.49514C41.6007 7.13523 41.6897 7.14857 46.7098 7.28025C52.1015 7.4206 52.9031 7.3539 52.855 6.75395C52.8023 6.09611 54.3852 5.80744 56.5565 6.08303C57.6573 6.21954 58.5493 6.23196 58.5391 6.10565C58.5069 5.70305 60.4321 5.86762 62.3821 6.43741L64.281 6.98866L65.0074 6.46139C65.6832 5.97085 67.3488 5.71129 70.072 5.66971C70.6487 5.66041 72.0839 5.62662 73.263 5.59492C74.8467 5.55356 75.5234 5.64708 75.877 5.95564C76.2883 6.31695 76.9982 6.34739 81.1231 6.18777L85.892 6.00057L89.3142 4.66081C91.1941 3.92551 92.9124 3.32142 93.1266 3.32187C93.3446 3.32233 94.0936 3.74487 94.7928 4.26201C95.8944 5.0773 98.0548 6.02901 99.2761 6.23681C99.4894 6.27409 100.052 6.4726 100.524 6.67882C101.562 7.13353 103.717 6.92237 104.921 6.24615C105.737 5.78748 108.956 5.19709 110.616 5.20061C111.094 5.20163 112.443 5.67805 113.618 6.25934C116.107 7.49063 116.783 7.57625 116.709 6.64738C116.578 5.02121 119.938 4.09963 121.996 5.19845C122.891 5.67917 122.971 5.67934 123.858 5.24186C124.829 4.76247 126.993 4.183 127.815 4.18474C128.079 4.1853 128.719 4.72599 129.238 5.38745C129.754 6.04891 130.876 7.1589 131.731 7.85527C133.154 9.01589 133.427 9.12433 134.946 9.13545C136.813 9.14993 139.269 8.29484 140.396 7.23697C141.346 6.34448 142.143 6.41984 144.697 7.64863C146.745 8.63167 146.889 8.66355 147.117 8.16942C147.433 7.47816 150.083 7.47852 152.012 8.16928L153.386 8.66155L155.042 7.80212C158.133 6.19857 158.694 6.08137 162.054 6.35422C165.73 6.65141 167.195 7.04653 169.934 8.49145C172.298 9.73825 173.868 9.90469 176.368 9.17334C177.134 8.94871 177.932 8.83728 178.141 8.92191C178.643 9.13082 183.394 8.47528 183.372 8.20162C183.341 7.81744 184.876 7.97592 186.457 8.51861C188.38 9.18041 188.693 9.18108 188.943 8.52388C189.29 7.6117 190.166 7.94768 191.866 9.64822C193.592 11.3725 194.145 12.0288 194.794 12.1038C195.164 12.1467 195.569 11.9976 196.241 11.7491C196.412 11.6863 196.598 11.6183 196.806 11.5451C197.992 11.124 199.363 10.4297 199.857 10.0019L200.754 9.22245L203.039 10.8664L205.323 12.5103L207.956 11.9607C209.404 11.6586 210.745 11.3063 210.933 11.1751C211.687 10.6558 212.328 11.0202 213.767 12.7992C215.358 14.7626 216.355 15.2645 217.871 14.8652C218.347 14.74 219.337 14.6395 220.075 14.641C221.085 14.6432 221.628 14.4549 222.297 13.8749C222.779 13.4497 223.962 12.7945 224.918 12.4177C226.386 11.8393 227.074 11.7408 229.254 11.7928C232.327 11.8677 232.876 11.6111 233.969 9.58759C234.375 8.83864 234.755 8.18435 234.82 8.1345C234.881 8.08464 236.046 8.41072 237.413 8.85561C239.828 9.64737 239.982 9.66349 243.128 9.4518C244.904 9.33191 246.634 9.15405 246.97 9.05742C247.422 8.9242 247.659 9.06941 247.902 9.61978C248.263 10.4493 251.025 13.6543 251.377 13.6551C251.499 13.6553 251.78 13.4823 251.996 13.2723C252.393 12.8864 253.002 12.8482 258.637 12.8707C261.391 12.8791 264.47 13.3145 264.5 13.6961C264.509 13.8013 265.376 14.5109 266.428 15.2708L268.34 16.6535L271.058 16.4987C274.431 16.3112 274.813 16.2094 275.297 15.3764C275.667 14.7484 275.799 14.7224 277.702 14.9001C279.732 15.0886 281.098 15.6203 281.148 16.2386C281.225 17.2043 285.352 18.3155 286.444 17.6653C286.772 17.4687 287.136 17.43 287.323 17.5698C287.498 17.7017 288.598 18.5381 289.766 19.4272C291.68 20.8835 292.073 21.0606 293.718 21.2114C294.724 21.3056 295.949 21.5687 296.438 21.7986C297.288 22.1951 297.405 22.169 298.753 21.2905C301.904 19.2346 303.527 19.1617 306.888 20.921C307.981 21.4916 308.979 21.8647 309.111 21.7492C309.24 21.6337 309.849 20.6511 310.466 19.5684C311.812 17.1851 312.053 16.9409 313.051 16.943C313.476 16.9439 314.895 16.5233 316.2 16.0078L318.576 15.071L320.219 15.5849C322.706 16.3636 324.439 16.5147 325.403 16.0352C325.855 15.8099 326.21 15.466 326.194 15.2687C326.131 14.4819 331.084 12.2456 332.881 12.2495C333.742 12.2513 338.556 14.2925 340.205 15.3563C340.737 15.6968 341.602 15.9512 342.241 15.9526C343.496 15.9552 345.298 15.0698 345.251 14.4751C345.228 14.1909 345.464 14.1309 346.093 14.2533C346.575 14.349 347.236 14.4767 347.558 14.5353C347.884 14.5965 348.739 14.5273 349.458 14.3841C350.545 14.1628 350.838 14.1923 351.184 14.5535C352.87 16.3145 355.46 17.5671 356.336 17.0454C356.668 16.8488 357.131 16.8445 357.861 17.0328C358.439 17.1814 359.657 17.305 360.568 17.3069C361.864 17.3097 362.493 17.4741 363.466 18.0734C365.646 19.4093 367.823 19.3718 367.713 18.0008C367.688 17.6851 367.862 17.2856 368.101 17.1124C368.758 16.635 371.478 16.7434 372.846 17.3014C373.906 17.7325 374.182 17.7515 374.961 17.4453C375.458 17.2543 376.164 17.0901 376.531 17.0882C377.157 17.079 377.257 17.8027 378.127 28.6571ZM377.961 21.8164L379.437 40.2358L379.246 40.2354C379.353 40.2356 378.773 31.9471 377.961 21.8164Z" fill="#0D0D0D"/>
<defs>
<filter id="filter0_d_465_37" x="-7.66797" y="0.618896" width="390.037" height="40.0352" filterUnits="userSpaceOnUse" color-interpolation-filters="sRGB">
<feFlood flood-opacity="0" result="BackgroundImageFix"/>
<feColorMatrix in="SourceAlpha" type="matrix" values="0 0 0 0 0 0 0 0 0 0 0 0 0 0 0 0 0 0 127 0" result="hardAlpha"/>
<feOffset dx="-1" dy="-1"/>
<feGaussianBlur stdDeviation="1.5"/>
<feComposite in2="hardAlpha" operator="out"/>
<feColorMatrix type="matrix" values="0 0 0 0 0 0 0 0 0 0 0 0 0 0 0 0 0 0 0.2 0"/>
<feBlend mode="normal" in2="BackgroundImageFix" result="effect1_dropShadow_465_37"/>
<feBlend mode="normal" in="SourceGraphic" in2="effect1_dropShadow_465_37" result="shape"/>
</filter>
</defs>
</svg>
