<svg width="640" height="53" viewBox="0 0 640 53" fill="none" xmlns="http://www.w3.org/2000/svg">
<g clip-path="url(#clip0_465_39)">
<rect width="640" height="53" fill="white"/>
<g filter="url(#filter0_d_465_39)">
<path d="M648.545 35.6746C648.943 45.443 649.414 53.433 649.599 53.4302L-5.22714 63.518L-7.43208 9.4205C-7.3383 11.7213 -7.24734 11.8451 -5.50662 12.0728C-4.5036 12.1987 -3.22141 12.5263 -2.66849 12.7965C-2.10898 13.0666 0.8623 13.3277 3.96371 13.3769C9.94843 13.4745 14.597 14.3521 17.2436 15.8906C19.0171 16.9215 21.4783 17.4774 24.3474 17.5018C26.0396 17.5121 26.9 17.2201 28.2906 16.1526C32.4501 12.9785 37.6883 11.4599 38.6497 13.1576C39.284 14.2909 44.1582 17.7863 46.145 18.5393C47.7425 19.1448 47.8804 19.1225 49.6051 17.9851C56.9867 13.1175 62.2311 10.7788 65.8966 10.7224C67.3826 10.6995 67.9867 10.9285 68.4404 11.6849C69.022 12.6574 69.1747 12.6752 77.8341 12.7276C87.1345 12.7823 88.5238 12.6559 88.4863 11.7355C88.4451 10.7264 91.2007 10.2356 94.9293 10.5942C96.82 10.7711 98.3595 10.7635 98.3516 10.5697C98.3264 9.95215 101.639 10.1475 104.963 10.9647L108.2 11.7549L109.495 10.9232C110.699 10.1493 113.595 9.70078 118.301 9.55558C119.298 9.52407 121.779 9.4293 123.817 9.34539C126.555 9.23454 127.717 9.35802 128.304 9.82154C128.987 10.3644 130.211 10.3899 137.346 10.0215L145.596 9.59151L151.607 7.4309C154.91 6.24505 157.923 5.26561 158.293 5.25991C158.669 5.25411 159.931 5.88093 161.099 6.65459C162.939 7.8743 166.598 9.272 168.691 9.5548C169.057 9.60571 170.014 9.89391 170.812 10.1966C172.571 10.8643 176.309 10.4755 178.439 9.40059C179.883 8.67151 185.486 7.66833 188.352 7.62417C189.178 7.61146 191.473 8.30313 193.457 9.16115C197.662 10.9786 198.823 11.0899 198.765 9.66506C198.663 7.17048 204.536 5.65422 208.005 7.28102C209.515 7.99288 209.653 7.99074 211.218 7.29212C212.931 6.52658 216.712 5.57166 218.132 5.54979C218.587 5.54277 219.652 6.35438 220.499 7.35514C221.339 8.35599 223.191 10.0279 224.615 11.0723C226.986 12.8129 227.448 12.9714 230.071 12.9431C233.294 12.9096 237.599 11.5225 239.627 9.86357C241.334 8.46398 242.706 8.55595 247.022 10.3676C250.485 11.8168 250.731 11.8615 251.163 11.0955C251.76 10.024 256.337 9.94543 259.616 10.9491L261.951 11.6644L264.876 10.2945C270.336 7.73851 271.313 7.5417 277.095 7.86057C283.42 8.20742 285.921 8.77071 290.542 10.9089C294.529 12.7539 297.228 12.9628 301.6 11.7645C302.94 11.3965 304.326 11.2014 304.681 11.3252C305.533 11.6312 313.787 10.4821 313.77 10.0623C313.746 9.47301 316.384 9.67067 319.073 10.4573C322.343 11.4166 322.885 11.4083 323.365 10.3911C324.035 8.97926 325.522 9.46931 328.329 12.0313C331.178 14.6289 332.084 15.6207 333.198 15.7166C333.835 15.7714 334.545 15.5303 335.725 15.1284C336.025 15.0268 336.351 14.9168 336.716 14.7981C338.796 14.1157 341.216 13.0081 342.101 12.3361L343.709 11.1117L347.53 13.5692L351.351 16.0267L355.939 15.1037C358.463 14.5963 360.805 14.015 361.14 13.8079C362.482 12.9875 363.561 13.5282 365.911 16.2184C368.51 19.1874 370.192 19.9289 372.842 19.2702C373.673 19.0635 375.39 18.8795 376.665 18.8599C378.408 18.833 379.361 18.5275 380.559 17.6164C381.424 16.9488 383.517 15.9068 385.197 15.2993C387.776 14.3669 388.972 14.195 392.732 14.2098C398.033 14.2331 399.001 13.8224 401.041 10.6809C401.8 9.51806 402.505 8.50146 402.621 8.42294C402.73 8.34452 404.718 8.81069 407.044 9.45342C411.155 10.5978 411.42 10.6179 416.869 10.1987C419.945 9.96151 422.945 9.6366 423.534 9.47809C424.324 9.25992 424.723 9.47592 425.101 10.3143C425.661 11.5779 430.187 16.4197 430.795 16.4104C431.006 16.4071 431.504 16.1329 431.894 15.8037C432.609 15.199 433.663 15.1221 443.392 14.9884C448.148 14.9192 453.431 15.4962 453.455 16.0815C453.462 16.2429 454.906 17.3072 456.664 18.4433L459.861 20.5106L464.567 20.1917C470.406 19.8028 471.073 19.635 471.972 18.3408C472.659 17.3649 472.889 17.321 476.162 17.5371C479.654 17.766 481.972 18.5422 482.011 19.4908C482.071 20.9722 489.115 22.556 491.049 21.5246C491.631 21.2127 492.262 21.1423 492.575 21.3516C492.867 21.5491 494.702 22.8012 496.653 24.1323C499.848 26.3126 500.513 26.573 503.342 26.7556C505.072 26.8703 507.168 27.2379 507.995 27.5765C509.433 28.1602 509.636 28.1167 512.031 26.7267C517.628 23.4739 520.437 23.3135 526.107 25.9162C527.953 26.7602 529.647 27.3036 529.884 27.1222C530.114 26.9409 531.242 25.413 532.389 23.7312C534.895 20.0292 535.329 19.6468 537.052 19.6203C537.785 19.609 540.269 18.9205 542.561 18.0894L546.735 16.5791L549.535 17.3196C553.77 18.4418 556.751 18.6221 558.452 17.8568C559.25 17.4971 559.889 16.9581 559.876 16.6554C559.827 15.4485 568.55 11.8648 571.654 11.8169C573.14 11.794 581.298 14.7865 584.065 16.3716C584.958 16.8789 586.434 17.2439 587.537 17.2269C589.703 17.1936 592.883 15.7794 592.846 14.8671C592.828 14.4312 593.241 14.3319 594.318 14.5011C595.143 14.6338 596.274 14.8103 596.826 14.8906C597.384 14.9749 598.866 14.843 600.118 14.6016C602.013 14.2291 602.516 14.2658 603.087 14.8103C605.865 17.4656 610.243 19.3127 611.795 18.485C612.384 18.173 613.182 18.1526 614.429 18.4202C615.416 18.6312 617.51 18.7847 619.082 18.7605C621.321 18.726 622.395 18.9599 624.03 19.8516C627.693 21.8389 631.455 21.7163 631.369 19.6133C631.35 19.1289 631.681 18.5099 632.106 18.2367C633.278 17.4836 637.967 17.5689 640.287 18.3854C642.084 19.016 642.56 19.037 643.928 18.5433C644.801 18.235 646.032 17.9616 646.666 17.9478C647.749 17.915 647.867 19.0239 648.545 35.6746ZM648.778 25.1694L649.93 53.4251L649.599 53.4302C649.784 53.4273 649.411 40.71 648.778 25.1694Z" fill="white"/>
</g>
<path d="M644.887 48.1987C646.437 58.1931 647.849 66.3718 648.032 66.3736L1.0335 59.6661L-7.55121 4.31728C-7.1861 6.67132 -7.08141 6.80022 -5.33138 7.07813C-4.32362 7.23289 -3.01565 7.60105 -2.43636 7.89156C-1.85055 8.18214 1.12153 8.52632 4.19734 8.65716C10.133 8.91249 14.8383 9.93024 17.6402 11.5715C19.5177 12.6712 22.0197 13.3033 24.8627 13.4029C26.539 13.4573 27.3561 13.1813 28.6062 12.1264C32.348 8.99024 37.3534 7.57426 38.5059 9.33446C39.268 10.5092 44.5064 14.2085 46.5622 15.0297C48.2152 15.6901 48.3491 15.6709 49.9217 14.5533C56.6525 9.76999 61.567 7.51604 65.1886 7.55359C66.6568 7.56881 67.2819 7.81856 67.8206 8.60344C68.5114 9.61255 68.6646 9.63475 77.2425 9.91335C86.4551 10.2109 87.8154 10.1178 87.6693 9.17618C87.5092 8.14371 90.1788 7.71371 93.9121 8.1771C95.8045 8.40701 97.3275 8.43929 97.2967 8.24106C97.1987 7.60918 100.501 7.89493 103.888 8.81655L107.186 9.70838L108.369 8.89187C109.469 8.13223 112.283 7.74907 116.924 7.72297C117.907 7.71667 120.351 7.68428 122.36 7.6515C125.057 7.60937 126.221 7.76575 126.857 8.25477C127.597 8.82733 128.812 8.88527 135.831 8.69416L143.947 8.46904L149.642 6.41698C152.77 5.29078 155.637 4.36803 156.002 4.37182C156.374 4.37568 157.697 5.04911 158.945 5.8702C160.911 7.16467 164.698 8.6883 166.804 9.03175C167.172 9.09328 168.153 9.4127 168.979 9.74288C170.799 10.4709 174.453 10.1707 176.435 9.12747C177.778 8.41982 183.205 7.54011 186.037 7.56947C186.853 7.57793 189.206 8.34451 191.272 9.27305C195.649 11.2399 196.812 11.3839 196.585 9.926C196.19 7.37373 201.823 5.97663 205.45 7.7295C207.029 8.4963 207.166 8.49772 208.631 7.82433C210.237 7.08642 213.866 6.20868 215.269 6.22323C215.72 6.2279 216.869 7.08508 217.826 8.12994C218.776 9.17472 220.808 10.9317 222.341 12.0361C224.893 13.8768 225.37 14.0508 227.962 14.09C231.149 14.1396 235.247 12.8337 237.057 11.1908C238.582 9.80475 239.95 9.93439 244.437 11.8982C248.036 13.4694 248.286 13.5214 248.622 12.7498C249.086 11.6702 253.607 11.7088 256.972 12.8198L259.368 13.6116L262.101 12.2875C267.204 9.81697 268.147 9.64121 273.909 10.1174C280.211 10.6363 282.753 11.277 287.58 13.5825C291.746 15.5718 294.441 15.8554 298.627 14.7443C299.91 14.403 301.259 14.2397 301.626 14.3754C302.505 14.7103 310.539 13.7504 310.472 13.3209C310.379 12.7179 313.014 12.9885 315.768 13.8623C319.119 14.9279 319.654 14.9334 320.01 13.9063C320.505 12.4807 322.035 13.0202 325.117 15.7116C328.244 18.4407 329.259 19.4779 330.373 19.6049C331.01 19.6774 331.684 19.4494 332.805 19.0693C333.089 18.9733 333.399 18.8693 333.746 18.7575C335.725 18.1141 337.989 17.0449 338.785 16.3811L340.233 15.1715L344.306 17.7825L348.379 20.3935L352.811 19.5695C355.249 19.1165 357.499 18.5831 357.806 18.3802C359.037 17.5765 360.169 18.1573 362.814 20.9679C365.738 24.07 367.491 24.8716 370.036 24.2671C370.834 24.0775 372.512 23.9341 373.771 23.9471C375.494 23.965 376.401 23.6775 377.479 22.7775C378.257 22.1175 380.204 21.1069 381.796 20.5297C384.238 19.6438 385.401 19.4991 389.126 19.612C394.376 19.7736 395.285 19.379 396.933 16.2211C397.546 15.0524 398.124 14.0317 398.229 13.9544C398.328 13.8771 400.351 14.4052 402.73 15.1226C406.935 16.399 407.199 16.4265 412.543 16.1397C415.56 15.9772 418.492 15.7231 419.055 15.5763C419.812 15.3739 420.232 15.605 420.705 16.4717C421.41 17.7778 426.463 22.8441 427.063 22.8503C427.272 22.8525 427.732 22.5851 428.079 22.2589C428.716 21.6593 429.75 21.6082 439.365 21.7244C444.064 21.7772 449.362 22.5042 449.455 23.1031C449.481 23.2683 451.036 24.3936 452.911 25.6005L456.32 27.7964L460.94 27.5928C466.674 27.3471 467.315 27.1929 468.052 25.8935C468.616 24.9139 468.838 24.875 472.104 25.181C475.588 25.5057 477.974 26.3592 478.125 27.3298C478.36 28.8454 485.519 30.6473 487.312 29.6433C487.851 29.3397 488.468 29.2842 488.802 29.5062C489.114 29.7156 491.079 31.043 493.168 32.4542C496.589 34.7657 497.278 35.0491 500.1 35.3093C501.825 35.4715 503.944 35.9017 504.803 36.2693C506.295 36.9032 506.491 36.864 508.697 35.5056C513.853 32.3264 516.614 32.2355 522.535 35.043C524.461 35.9536 526.203 36.553 526.416 36.3738C526.623 36.1945 527.558 34.6621 528.494 32.973C530.537 29.2544 530.921 28.8749 532.624 28.8926C533.348 28.9001 535.725 28.2609 537.896 27.4711L541.849 26.036L544.708 26.8655C549.033 28.1226 552.005 28.3843 553.598 27.6463C554.345 27.2994 554.914 26.7652 554.866 26.4554C554.674 25.2206 562.885 21.7845 565.951 21.8163C567.42 21.8315 575.849 25.102 578.776 26.794C579.72 27.3357 581.224 27.7471 582.314 27.7584C584.454 27.7806 587.435 26.4179 587.29 25.4845C587.221 25.0385 587.617 24.9478 588.704 25.1487C589.536 25.3058 590.676 25.5155 591.232 25.612C591.795 25.7126 593.246 25.6163 594.457 25.4021C596.288 25.0706 596.791 25.1212 597.421 25.6926C600.485 28.4787 605.036 30.4803 606.475 29.6747C607.021 29.3711 607.809 29.3711 609.075 29.6769C610.077 29.9182 612.168 30.1296 613.721 30.1457C615.933 30.1686 617.024 30.4355 618.748 31.3894C622.609 33.5158 626.318 33.4883 625.985 31.3366C625.908 30.841 626.163 30.2169 626.551 29.9488C627.622 29.2095 632.274 29.4185 634.667 30.3133C636.52 31.0046 636.994 31.0384 638.29 30.5694C639.117 30.277 640.304 30.0295 640.929 30.0319C641.997 30.0265 642.245 31.1629 644.887 48.1987ZM643.874 37.4678L648.358 66.377L648.032 66.3736C648.215 66.3755 646.341 53.3679 643.874 37.4678Z" fill="#0D0D0D"/>
</g>
<defs>
<filter id="filter0_d_465_39" x="-11.4321" y="1.25977" width="663.362" height="64.2583" filterUnits="userSpaceOnUse" color-interpolation-filters="sRGB">
<feFlood flood-opacity="0" result="BackgroundImageFix"/>
<feColorMatrix in="SourceAlpha" type="matrix" values="0 0 0 0 0 0 0 0 0 0 0 0 0 0 0 0 0 0 127 0" result="hardAlpha"/>
<feOffset dx="-1" dy="-1"/>
<feGaussianBlur stdDeviation="1.5"/>
<feComposite in2="hardAlpha" operator="out"/>
<feColorMatrix type="matrix" values="0 0 0 0 0 0 0 0 0 0 0 0 0 0 0 0 0 0 0.2 0"/>
<feBlend mode="normal" in2="BackgroundImageFix" result="effect1_dropShadow_465_39"/>
<feBlend mode="normal" in="SourceGraphic" in2="effect1_dropShadow_465_39" result="shape"/>
</filter>
<clipPath id="clip0_465_39">
<rect width="640" height="53" fill="white"/>
</clipPath>
</defs>
</svg>
