<svg width="2467" height="106" viewBox="0 0 2467 106" fill="none" xmlns="http://www.w3.org/2000/svg">
<g clip-path="url(#clip0_503_50)">
<rect width="2467" height="106" fill="white"/>
<rect width="2467" height="41" transform="translate(0 65)" fill="#0D0D0D"/>
<g filter="url(#filter0_d_503_50)">
<path d="M1221.3 51.3014C1222.64 64.1175 1224.02 74.6021 1224.37 74.6006L-25.9551 80.0717L-33.3767 9.09618C-33.061 12.1148 -32.8799 12.2783 -29.5411 12.5975C-27.6175 12.7745 -25.1487 13.2193 -24.0765 13.5802C-22.9916 13.9411 -17.3 14.3188 -11.3725 14.4201C0.0660069 14.619 8.99821 15.8251 14.1454 17.8742C17.5944 19.2472 22.3291 20.0054 27.8114 20.0715C31.0447 20.105 32.671 19.7323 35.2641 18.3487C43.0218 14.235 52.9382 12.3054 54.8755 14.5434C56.1545 16.0373 65.6731 20.6793 69.5132 21.6904C72.6009 22.5034 72.8629 22.4758 76.0902 21.0046C89.9026 14.7081 99.7823 11.7031 106.781 11.6725C109.618 11.66 110.786 11.9675 111.698 12.9649C112.866 14.2473 113.159 14.2725 129.704 14.4438C147.474 14.6257 150.121 14.4764 149.994 13.2689C149.856 11.9449 155.091 11.3339 162.235 11.8484C165.857 12.1027 168.798 12.1111 168.771 11.8569C168.686 11.0466 175.025 11.3421 181.424 12.4532L187.656 13.528L190.079 12.4524C192.334 11.4518 197.839 10.8978 206.821 10.7632C208.723 10.7336 213.456 10.6388 217.346 10.5529C222.57 10.4399 224.796 10.6156 225.945 11.2305C227.282 11.9505 229.621 11.9986 243.23 11.5999L258.964 11.1337L270.32 8.37127C276.558 6.85515 282.256 5.60631 282.962 5.60322C283.681 5.60007 286.128 6.4371 288.405 7.4656C291.994 9.08708 299.066 10.9635 303.081 11.3592C303.783 11.4303 305.628 11.8196 307.171 12.2261C310.571 13.1226 317.688 12.657 321.694 11.2725C324.409 10.3334 335.053 9.0841 340.526 9.06015C342.102 9.05326 346.527 9.98759 350.369 11.1364C358.508 13.5698 360.733 13.7296 360.538 11.8602C360.195 8.58731 371.324 6.66831 378.049 8.84298C380.974 9.79447 381.239 9.79331 384.186 8.8956C387.413 7.91188 394.579 6.7043 397.291 6.69244C398.161 6.68863 400.241 7.76568 401.919 9.08822C403.584 10.4108 407.222 12.6255 410.003 14.0121C414.636 16.3231 415.528 16.5364 420.536 16.5304C426.693 16.5246 434.834 14.7564 438.609 12.6047C441.787 10.7894 444.413 10.9262 452.767 13.3534C459.467 15.295 459.94 15.3566 460.719 14.3571C461.796 12.9589 470.534 12.9101 476.858 14.2653L481.362 15.231L486.868 13.4691C497.147 10.1815 499.001 9.935 510.066 10.4217C522.169 10.9516 526.981 11.72 535.935 14.579C543.661 17.046 548.828 17.3518 557.109 15.8321C559.647 15.3653 562.284 15.126 562.97 15.2925C564.615 15.7039 580.314 14.2947 580.256 13.7439C580.175 12.9707 585.227 13.2612 590.41 14.3247C596.715 15.6217 597.749 15.6172 598.607 14.2888C599.802 12.4451 602.671 13.1054 608.186 16.4987C613.782 19.9393 615.572 21.2508 617.706 21.3898C618.925 21.4692 620.268 21.1613 622.498 20.6482C623.065 20.5186 623.681 20.3781 624.372 20.2268C628.305 19.3565 632.862 17.9325 634.512 17.0617L637.513 15.475L652.402 22.0115L661.113 20.8554C665.903 20.2199 670.343 19.4852 670.971 19.2175C673.485 18.1574 675.579 18.8794 680.227 22.4355C685.369 26.3602 688.627 27.3526 693.649 26.52C695.224 26.2588 698.494 26.0379 700.928 26.0272C704.257 26.0127 706.058 25.6233 708.294 24.4426C709.906 23.5772 713.841 22.2354 717.015 21.4586C721.886 20.2663 724.16 20.055 731.346 20.119C741.474 20.2124 743.298 19.6852 747.008 15.5892C748.389 14.0732 749.676 12.7483 749.892 12.6466C750.096 12.5451 753.922 13.18 758.404 14.0505C766.325 15.6001 766.832 15.6296 777.215 15.1445C783.078 14.8698 788.79 14.4792 789.905 14.2783C791.403 14.0015 792.177 14.2895 792.948 15.3935C794.094 17.0575 803.027 23.4611 804.187 23.4561C804.591 23.4543 805.525 23.1005 806.25 22.6735C807.581 21.8888 809.591 21.8005 828.168 21.7404C837.248 21.706 847.376 22.5253 847.456 23.2932C847.479 23.505 850.301 24.9179 853.727 26.4289L859.956 29.1779L868.926 28.8155C880.058 28.3747 881.323 28.1625 882.963 26.4758C884.218 25.204 884.654 25.1491 890.92 25.4714C897.604 25.813 902.079 26.8584 902.209 28.1029C902.412 30.0465 915.961 32.2072 919.594 30.8773C920.687 30.4752 921.89 30.3904 922.499 30.6686C923.069 30.931 926.649 32.5949 930.455 34.3638C936.688 37.2612 937.973 37.6105 943.389 37.8836C946.7 38.0545 950.727 38.5614 952.326 39.0154C955.108 39.7979 955.493 39.7433 959.986 37.9487C970.485 33.7489 975.841 33.5718 986.828 37.0524C990.403 38.1812 993.671 38.9139 994.114 38.6789C994.543 38.4439 996.606 36.4533 998.698 34.2612C1003.27 29.4357 1004.07 28.9394 1007.36 28.925C1008.76 28.9189 1013.47 28.0452 1017.79 26.9825L1025.68 25.0512L1031.07 26.0555C1039.23 27.5775 1044.93 27.8493 1048.14 26.8657C1049.64 26.4034 1050.83 25.7041 1050.79 25.307C1050.62 23.7235 1067.07 19.1267 1073 19.1008C1075.84 19.0884 1091.6 23.1097 1096.98 25.2214C1098.72 25.8973 1101.56 26.3935 1103.66 26.3843C1107.8 26.3662 1113.79 24.5491 1113.66 23.3523C1113.6 22.7803 1114.39 22.655 1116.45 22.8897C1118.04 23.0735 1120.21 23.3183 1121.27 23.4302C1122.34 23.5474 1125.16 23.392 1127.54 23.0902C1131.14 22.6241 1132.1 22.6782 1133.22 23.3991C1138.69 26.9145 1147.16 29.3888 1150.08 28.3217C1151.18 27.9195 1152.71 27.9022 1155.11 28.2679C1157 28.5563 1161.01 28.7825 1164.01 28.7693C1168.29 28.7506 1170.35 29.0701 1173.53 30.2589C1180.65 32.9087 1187.83 32.7925 1187.54 30.0334C1187.47 29.3979 1188.07 28.5899 1188.86 28.2367C1191.06 27.2628 1200.02 27.4303 1204.5 28.5286C1207.97 29.377 1208.88 29.4101 1211.46 28.7789C1213.11 28.3849 1215.45 28.0409 1216.66 28.0303C1218.73 28.0001 1219.02 29.4559 1221.3 51.3014ZM1221.12 37.5266L1225 74.5978L1224.37 74.6006C1224.72 74.599 1223.25 57.9158 1221.12 37.5266Z" fill="white"/>
<path d="M1212.14 51.5313C1210.85 64.3531 1209.53 74.8437 1209.17 74.8437L2459.51 74.8258L2466.62 3.81834C2466.32 6.83836 2466.13 7.00261 2462.8 7.33644C2460.87 7.52191 2458.41 7.9776 2457.34 8.34319C2456.25 8.70879 2450.56 9.11154 2444.64 9.23878C2433.2 9.48796 2424.27 10.7332 2419.13 12.8049C2415.69 14.1931 2410.96 14.972 2405.48 15.0621C2402.25 15.1099 2400.62 14.7443 2398.02 13.3721C2390.24 9.29254 2380.32 7.4065 2378.39 9.653C2377.12 11.1524 2367.62 15.8362 2363.78 16.8641C2360.7 17.6907 2360.44 17.6642 2357.2 16.2073C2343.36 9.97139 2333.47 7.0098 2326.47 7.0099C2323.64 7.00995 2322.47 7.32256 2321.56 8.32394C2320.4 9.61144 2320.11 9.63794 2303.56 9.88189C2285.79 10.1418 2283.15 10.004 2283.27 8.79604C2283.4 7.47147 2278.16 6.88344 2271.02 7.42926C2267.4 7.69953 2264.46 7.72076 2264.48 7.46644C2264.57 6.65581 2258.23 6.97909 2251.83 8.11831L2245.61 9.22044L2243.18 8.15552C2240.92 7.16478 2235.41 6.63503 2226.43 6.53979C2224.53 6.51863 2219.79 6.44452 2215.9 6.3757C2210.68 6.2857 2208.45 6.47117 2207.31 7.09109C2205.97 7.81697 2203.64 7.87528 2190.02 7.53639L2174.29 7.13924L2162.92 4.4267C2156.68 2.93797 2150.97 1.71416 2150.27 1.71417C2149.55 1.71418 2147.1 2.56193 2144.83 3.60043C2141.25 5.23764 2134.19 7.14512 2130.17 7.55844C2129.47 7.63263 2127.63 8.03002 2126.09 8.44331C2122.69 9.35466 2115.57 8.9203 2111.56 7.55341C2108.84 6.62625 2098.19 5.4237 2092.72 5.42378C2091.14 5.4238 2086.72 6.37755 2082.88 7.54322C2074.76 10.0123 2072.53 10.1819 2072.72 8.31162C2073.05 5.03729 2061.91 3.16716 2055.2 5.37133C2052.27 6.33566 2052.01 6.33566 2049.06 5.45089C2045.83 4.48136 2038.66 3.30525 2035.94 3.30528C2035.07 3.3053 2033 4.39147 2031.33 5.72136C2029.67 7.05125 2026.04 9.28187 2023.26 10.6807C2018.64 13.012 2017.75 13.2292 2012.74 13.2452C2006.59 13.2664 1998.44 11.534 1994.65 9.39888C1991.47 7.59752 1988.84 7.74591 1980.5 10.2097C1973.81 12.1808 1973.33 12.2444 1972.55 11.2483C1971.47 9.85486 1962.73 9.84439 1956.41 11.2273L1951.91 12.2129L1946.4 10.4751C1936.1 7.23273 1934.25 6.99433 1923.19 7.52962C1911.09 8.1126 1906.28 8.90211 1897.34 11.8004C1889.62 14.3013 1884.45 14.6298 1876.17 13.1465C1873.63 12.6908 1870.99 12.463 1870.3 12.6326C1868.66 13.0512 1852.96 11.711 1853.01 11.1599C1853.09 10.3864 1848.04 10.6991 1842.86 11.7853C1836.56 13.1099 1835.53 13.1099 1834.66 11.7854C1833.46 9.94691 1830.59 10.6198 1825.09 14.0373C1819.51 17.5024 1817.73 18.8217 1815.6 18.9701C1814.38 19.0549 1813.03 18.7529 1810.8 18.2496C1810.23 18.1225 1809.62 17.9847 1808.92 17.8364C1804.99 16.9834 1800.42 15.5794 1798.77 14.7158L1795.76 13.1423L1780.9 19.7442L1772.19 18.6263C1767.39 18.0118 1762.95 17.2966 1762.32 17.0317C1759.8 15.9827 1757.71 16.7139 1753.08 20.2903C1747.95 24.2376 1744.7 25.2443 1739.68 24.4337C1738.1 24.1794 1734.83 23.9728 1732.39 23.9729C1729.07 23.9729 1727.26 23.5915 1725.02 22.4206C1723.41 21.5623 1719.46 20.2378 1716.29 19.4749C1711.41 18.304 1709.14 18.1027 1701.95 18.1982C1691.82 18.3361 1690 17.8169 1686.27 13.7373C1684.88 12.2273 1683.59 10.908 1683.37 10.8074C1683.17 10.7067 1679.34 11.3585 1674.87 12.2486C1666.95 13.8329 1666.44 13.8647 1656.06 13.4251C1650.2 13.1762 1644.48 12.8107 1643.37 12.6147C1641.87 12.3445 1641.09 12.6359 1640.33 13.7432C1639.19 15.4122 1630.29 21.855 1629.12 21.855C1628.72 21.855 1627.79 21.5054 1627.06 21.0815C1625.72 20.3027 1623.71 20.2233 1605.14 20.2447C1596.06 20.2501 1585.93 21.1139 1585.86 21.8822C1585.83 22.0941 1583.02 23.5194 1579.6 25.0453L1573.38 27.8217L1564.41 27.4986C1553.28 27.1067 1552.01 26.9001 1550.36 25.2206C1549.1 23.9543 1548.67 23.9013 1542.4 24.2511C1535.72 24.6221 1531.25 25.6871 1531.12 26.9322C1530.93 28.8766 1517.39 31.0968 1513.75 29.7829C1512.66 29.3855 1511.45 29.3061 1510.85 29.5869C1510.28 29.8518 1506.7 31.5314 1502.91 33.317C1496.69 36.2417 1495.4 36.5967 1489.99 36.8935C1486.68 37.079 1482.65 37.6036 1481.06 38.0645C1478.28 38.8593 1477.89 38.8064 1473.39 37.0315C1462.87 32.8778 1457.52 32.7242 1446.55 36.253C1442.98 37.3975 1439.71 38.1446 1439.27 37.9115C1438.84 37.6784 1436.77 35.6969 1434.66 33.514C1430.08 28.7085 1429.27 28.2158 1425.98 28.2159C1424.58 28.2159 1419.87 27.3629 1415.53 26.3192L1407.64 24.4226L1402.25 25.4505C1394.1 27.0083 1388.4 27.3051 1385.19 26.3356C1383.69 25.8799 1382.5 25.1859 1382.53 24.7885C1382.69 23.2043 1366.22 18.6799 1360.3 18.6799C1357.46 18.68 1341.71 22.7705 1336.34 24.9057C1334.61 25.5892 1331.77 26.0979 1329.67 26.0979C1325.53 26.098 1319.53 24.3073 1319.65 23.1099C1319.71 22.5377 1318.93 22.4158 1316.86 22.6596C1315.28 22.8503 1313.11 23.1047 1312.05 23.2212C1310.98 23.3431 1308.15 23.2001 1305.77 22.9087C1302.17 22.4584 1301.21 22.5167 1300.09 23.2426C1294.64 26.7819 1286.18 29.2934 1283.26 28.2391C1282.15 27.8418 1280.63 27.8312 1278.23 28.2074C1276.34 28.5041 1272.33 28.7479 1269.32 28.7479C1265.05 28.748 1262.99 29.0765 1259.81 30.2793C1252.71 32.9603 1245.53 32.8756 1245.81 30.1152C1245.87 29.4794 1245.27 28.6741 1244.47 28.3244C1242.28 27.3602 1233.31 27.5669 1228.84 28.6849C1225.37 29.5486 1224.46 29.5857 1221.87 28.9659C1220.22 28.5791 1217.89 28.2453 1216.68 28.2401C1214.61 28.2189 1214.33 29.6759 1212.14 51.5313ZM1212.26 37.7558L1208.54 74.8437L1209.17 74.8437C1208.82 74.8437 1210.21 58.1542 1212.26 37.7558Z" fill="white"/>
</g>
<path d="M1239.28 56.3111C1240.59 69.1301 1241.95 79.6177 1242.3 79.617L-8.03404 82.3436L-15.2998 11.3519C-14.9908 14.3713 -14.81 14.5351 -11.4719 14.8616C-9.54877 15.0429 -7.08093 15.4931 -6.00946 15.8564C-4.92538 16.2196 0.765333 16.6099 6.69267 16.7241C18.1307 16.9482 27.0602 18.1738 32.2029 20.2342C35.6489 21.6148 40.3819 22.3834 45.864 22.4615C49.0972 22.5021 50.7244 22.133 53.3205 20.7551C61.0872 16.6585 71.0079 14.7506 72.9401 16.9929C74.2159 18.4895 83.7243 23.1525 87.5622 24.172C90.6481 24.9918 90.9102 24.9647 94.1407 23.5006C107.967 17.2344 117.853 14.2511 124.852 14.2359C127.689 14.2297 128.856 14.5397 129.766 15.5391C130.932 16.824 131.224 16.8499 147.769 17.0575C165.539 17.2784 168.185 17.1349 168.062 15.9271C167.926 14.6029 173.162 14.0033 180.305 14.5335C183.927 14.7958 186.867 14.8106 186.841 14.5563C186.758 13.7459 193.097 14.0552 199.493 15.1804L205.722 16.2689L208.148 15.1986C210.405 14.2029 215.912 13.6611 224.893 13.5461C226.795 13.5208 231.529 13.4363 235.419 13.3589C240.643 13.2575 242.869 13.4381 244.017 14.0555C245.352 14.7784 247.691 14.8316 261.301 14.4628L277.036 14.0311L288.398 11.2936C294.639 9.79122 300.34 8.55489 301.046 8.55335C301.765 8.55178 304.21 9.39417 306.485 10.4277C310.07 12.057 317.138 13.949 321.153 14.3535C321.854 14.4261 323.698 14.8195 325.241 15.2294C328.638 16.1333 335.756 15.6833 339.765 14.3076C342.482 13.3745 353.129 12.1486 358.602 12.1366C360.178 12.1332 364.601 13.0772 368.44 14.2345C376.575 16.6857 378.799 16.8504 378.607 14.9806C378.272 11.707 389.405 9.81239 396.125 12.0018C399.049 12.9597 399.313 12.9592 402.262 12.0679C405.492 11.0913 412.66 9.89943 415.372 9.89352C416.242 9.89162 418.32 10.9732 419.995 12.2995C421.657 13.6257 425.29 15.8483 428.069 17.241C432.696 19.5622 433.588 19.7775 438.596 19.7824C444.752 19.7902 452.898 18.0399 456.677 15.8965C459.859 14.0881 462.485 14.2307 470.833 16.6762C477.529 18.6326 478.002 18.6951 478.783 17.6974C479.864 16.3016 488.602 16.2719 494.922 17.641L499.424 18.6166L504.934 16.8668C515.22 13.6018 517.075 13.3593 528.138 13.8703C540.241 14.4268 545.051 15.2057 553.998 18.0844C561.719 20.5683 566.885 20.8855 575.17 19.3839C577.709 18.9228 580.346 18.6892 581.032 18.8572C582.676 19.2722 598.378 17.8975 598.321 17.3466C598.242 16.5732 603.293 16.8748 608.474 17.9497C614.776 19.2605 615.81 19.2582 616.671 17.9318C617.87 16.0907 620.738 16.7573 626.245 20.1627C631.833 23.6156 633.62 24.9309 635.754 25.0746C636.973 25.1568 638.317 24.8518 640.548 24.3436C641.115 24.2152 641.731 24.0761 642.423 23.9263C646.358 23.0647 650.918 21.6507 652.57 20.7834L655.574 19.2033L670.449 25.7725L679.162 24.6356C683.954 24.0105 688.396 23.2856 689.024 23.0193C691.54 21.9648 693.632 22.6914 698.273 26.2576C703.406 30.1936 706.662 31.1932 711.686 30.3716C713.262 30.1138 716.532 29.9001 718.966 29.8947C722.295 29.8875 724.097 29.5021 726.335 28.3263C727.95 27.4644 731.887 26.1313 735.063 25.3614C739.937 24.1799 742.211 23.9736 749.397 24.0533C759.524 24.1689 761.35 23.6457 765.069 19.5579C766.453 18.0449 767.743 16.7228 767.96 16.6217C768.164 16.5206 771.988 17.1639 776.468 18.0443C784.385 19.6112 784.893 19.6419 795.277 19.1795C801.141 18.9177 806.854 18.5396 807.968 18.3412C809.467 18.0677 810.24 18.3574 811.01 19.4631C812.151 21.1295 821.07 27.5528 822.231 27.5502C822.634 27.5494 823.569 27.1976 824.295 26.7722C825.628 25.9904 827.638 25.9066 846.215 25.8873C855.295 25.8728 865.421 26.7143 865.5 27.4824C865.522 27.6943 868.341 29.1134 871.763 30.6318L877.987 33.3945L886.958 33.0518C898.09 32.6354 899.356 32.426 901 30.7429C902.257 29.4739 902.693 29.4199 908.959 29.7559C915.642 30.1122 920.114 31.1674 920.242 32.4123C920.441 34.3563 933.985 36.5467 937.621 35.2248C938.715 34.8251 939.917 34.743 940.526 35.0225C941.096 35.2861 944.672 36.9579 948.474 38.7351C954.7 41.6462 955.985 41.9984 961.4 42.2833C964.711 42.4615 968.737 42.9772 970.335 43.4347C973.115 44.2234 973.5 44.1696 977.997 42.3848C988.505 38.2081 993.862 38.0427 1004.84 41.5474C1008.41 42.6841 1011.68 43.424 1012.12 43.1899C1012.55 42.9559 1014.62 40.9698 1016.72 38.7823C1021.29 33.9668 1022.1 33.4723 1025.39 33.4651C1026.79 33.4621 1031.5 32.5988 1035.83 31.5456L1043.72 29.6316L1049.11 30.6477C1057.26 32.1876 1062.97 32.4719 1066.17 31.4953C1067.68 31.0364 1068.87 30.3397 1068.83 29.9424C1068.66 28.3586 1085.12 23.798 1091.05 23.7851C1093.89 23.7789 1109.64 27.8348 1115.02 29.9583C1116.75 30.638 1119.59 31.1404 1121.7 31.1358C1125.83 31.1268 1131.83 29.3229 1131.71 28.1258C1131.65 27.5537 1132.43 27.4301 1134.5 27.6693C1136.08 27.8566 1138.25 28.1062 1139.31 28.2204C1140.38 28.34 1143.2 28.1908 1145.58 27.8942C1149.18 27.436 1150.15 27.4921 1151.27 28.2156C1156.72 31.7429 1165.19 34.2358 1168.11 33.1751C1169.22 32.7753 1170.74 32.7614 1173.14 33.1324C1175.03 33.4249 1179.04 33.6599 1182.04 33.6534C1186.32 33.644 1188.38 33.968 1191.56 35.1638C1198.67 37.8292 1205.85 37.7288 1205.56 34.969C1205.5 34.3334 1206.1 33.5267 1206.89 33.1753C1209.09 32.2062 1218.05 32.3933 1222.53 33.5015C1226 34.3575 1226.91 34.3926 1229.5 33.7671C1231.15 33.3767 1233.48 33.0379 1234.69 33.0299C1236.76 33.0042 1237.05 34.4606 1239.28 56.3111ZM1239.13 42.5359L1242.93 79.6156L1242.3 79.617C1242.65 79.6162 1241.22 62.9297 1239.13 42.5359Z" fill="#0D0D0D"/>
<path d="M1230.12 56.5209C1228.81 69.3399 1227.46 79.8275 1227.1 79.8267L2477.43 82.5533L2484.7 11.5617C2484.39 14.581 2484.21 14.7449 2480.87 15.0714C2478.95 15.2526 2476.48 15.7029 2475.41 16.0662C2474.33 16.4294 2468.64 16.8196 2462.71 16.9339C2451.27 17.1579 2442.34 18.3836 2437.2 20.444C2433.75 21.8246 2429.02 22.5931 2423.54 22.6712C2420.3 22.7119 2418.68 22.3428 2416.08 20.9648C2408.31 16.8682 2398.39 14.9604 2396.46 17.2027C2395.18 18.6993 2385.68 23.3622 2381.84 24.3817C2378.75 25.2015 2378.49 25.1745 2375.26 23.7104C2361.43 17.4442 2351.55 14.4609 2344.55 14.4456C2341.71 14.4394 2340.54 14.7495 2339.63 15.7489C2338.47 17.0338 2338.18 17.0597 2321.63 17.2673C2303.86 17.4882 2301.22 17.3446 2301.34 16.1369C2301.47 14.8126 2296.24 14.2131 2289.09 14.7433C2285.47 15.0056 2282.53 15.0203 2282.56 14.7661C2282.64 13.9556 2276.3 14.265 2269.91 15.3902L2263.68 16.4786L2261.25 15.4084C2259 14.4127 2253.49 13.8709 2244.51 13.7559C2242.6 13.7306 2237.87 13.6461 2233.98 13.5687C2228.76 13.4672 2226.53 13.6478 2225.38 14.2652C2224.05 14.9882 2221.71 15.0414 2208.1 14.6726L2192.36 14.2409L2181 11.5034C2174.76 10.001 2169.06 8.76465 2168.35 8.76311C2167.64 8.76154 2165.19 9.60394 2162.92 10.6374C2159.33 12.2668 2152.26 14.1588 2148.25 14.5633C2147.55 14.6359 2145.7 15.0293 2144.16 15.4392C2140.76 16.3431 2133.64 15.8931 2129.64 14.5174C2126.92 13.5843 2116.27 12.3583 2110.8 12.3464C2109.22 12.343 2104.8 13.287 2100.96 14.4442C2092.83 16.8955 2090.6 17.0602 2090.79 15.1903C2091.13 11.9167 2080 10.0222 2073.28 12.2116C2070.35 13.1695 2070.09 13.1689 2067.14 12.2777C2063.91 11.301 2056.74 10.1092 2054.03 10.1033C2053.16 10.1014 2051.08 11.183 2049.41 12.5092C2047.74 13.8355 2044.11 16.0581 2041.33 17.4508C2036.7 19.7719 2035.81 19.9872 2030.8 19.9922C2024.65 20 2016.5 18.2497 2012.72 16.1062C2009.54 14.2979 2006.92 14.4405 1998.57 16.886C1991.87 18.8423 1991.4 18.9049 1990.62 17.9071C1989.54 16.5113 1980.8 16.4817 1974.48 17.8507L1969.98 18.8264L1964.47 17.0765C1954.18 13.8116 1952.33 13.5691 1941.26 14.0801C1929.16 14.6365 1924.35 15.4155 1915.4 18.2941C1907.68 20.7781 1902.51 21.0953 1894.23 19.5937C1891.69 19.1325 1889.05 18.8989 1888.37 19.067C1886.72 19.482 1871.02 18.1073 1871.08 17.5564C1871.16 16.783 1866.11 17.0846 1860.93 18.1594C1854.62 19.4703 1853.59 19.468 1852.73 18.1416C1851.53 16.3004 1848.66 16.9671 1843.15 20.3724C1837.57 23.8253 1835.78 25.1407 1833.65 25.2844C1832.43 25.3665 1831.08 25.0616 1828.85 24.5534C1828.29 24.425 1827.67 24.2859 1826.98 24.136C1823.04 23.2744 1818.48 21.8604 1816.83 20.9932L1813.83 19.4131L1798.95 25.9823L1790.24 24.8453C1785.45 24.2203 1781 23.4953 1780.38 23.2291C1777.86 22.1745 1775.77 22.9011 1771.13 26.4673C1765.99 30.4034 1762.74 31.4029 1757.71 30.5813C1756.14 30.3236 1752.87 30.1098 1750.43 30.1045C1747.11 30.0973 1745.3 29.7118 1743.07 28.536C1741.45 27.6742 1737.51 26.341 1734.34 25.5712C1729.46 24.3896 1727.19 24.1833 1720 24.263C1709.88 24.3787 1708.05 23.8555 1704.33 19.7677C1702.95 18.2547 1701.66 16.9326 1701.44 16.8315C1701.24 16.7303 1697.41 17.3737 1692.93 18.254C1685.01 19.8209 1684.51 19.8516 1674.12 19.3892C1668.26 19.1274 1662.55 18.7494 1661.43 18.5509C1659.93 18.2774 1659.16 18.5672 1658.39 19.6728C1657.25 21.3393 1648.33 27.7625 1647.17 27.76C1646.77 27.7591 1645.83 27.4074 1645.11 26.982C1643.77 26.2002 1641.76 26.1163 1623.19 26.097C1614.11 26.0825 1603.98 26.9241 1603.9 27.6921C1603.88 27.904 1601.06 29.3231 1597.64 30.8416L1591.41 33.6043L1582.44 33.2615C1571.31 32.8452 1570.04 32.6358 1568.4 30.9526C1567.14 29.6836 1566.71 29.6297 1560.44 29.9657C1553.76 30.322 1549.29 31.3772 1549.16 32.622C1548.96 34.5661 1535.42 36.7565 1531.78 35.4346C1530.69 35.0348 1529.48 34.9527 1528.87 35.2322C1528.3 35.4959 1524.73 37.1677 1520.93 38.9449C1514.7 41.856 1513.42 42.2081 1508 42.493C1504.69 42.6713 1500.66 43.187 1499.07 43.6445C1496.29 44.4331 1495.9 44.3793 1491.4 42.5946C1480.89 38.4178 1475.54 38.2525 1464.56 41.7572C1460.99 42.8938 1457.72 43.6338 1457.28 43.3997C1456.85 43.1656 1454.78 41.1796 1452.68 38.9921C1448.11 34.1766 1447.3 33.6821 1444.01 33.6749C1442.61 33.6719 1437.9 32.8086 1433.57 31.7554L1425.68 29.8414L1420.29 30.8575C1412.14 32.3974 1406.43 32.6817 1403.23 31.7051C1401.72 31.2462 1400.53 30.5495 1400.57 30.1522C1400.74 28.5684 1384.28 24.0077 1378.35 23.9948C1375.51 23.9886 1359.76 28.0446 1354.38 30.168C1352.65 30.8477 1349.81 31.3502 1347.7 31.3456C1343.57 31.3366 1337.57 29.5327 1337.69 28.3355C1337.75 27.7634 1336.97 27.6399 1334.9 27.8791C1333.32 28.0664 1331.15 28.316 1330.09 28.4302C1329.02 28.5497 1326.2 28.4005 1323.82 28.1039C1320.22 27.6457 1319.25 27.7019 1318.13 28.4253C1312.68 31.9527 1304.21 34.4456 1301.29 33.3849C1300.18 32.9851 1298.66 32.9712 1296.26 33.3421C1294.37 33.6347 1290.36 33.8697 1287.36 33.8631C1283.08 33.8538 1281.02 34.1778 1277.84 35.3736C1270.73 38.039 1263.55 37.9386 1263.84 35.1788C1263.9 34.5431 1263.3 33.7365 1262.51 33.3851C1260.31 32.416 1251.35 32.6031 1246.87 33.7113C1243.4 34.5673 1242.49 34.6024 1239.91 33.9769C1238.25 33.5865 1235.92 33.2476 1234.71 33.2397C1232.64 33.214 1232.35 34.6704 1230.12 56.5209ZM1230.27 42.7457L1226.47 79.8254L1227.1 79.8267C1226.75 79.826 1228.18 63.1395 1230.27 42.7457Z" fill="#0D0D0D"/>
</g>
<defs>
<filter id="filter0_d_503_50" x="-37.377" y="-2.28589" width="2505.99" height="84.3577" filterUnits="userSpaceOnUse" color-interpolation-filters="sRGB">
<feFlood flood-opacity="0" result="BackgroundImageFix"/>
<feColorMatrix in="SourceAlpha" type="matrix" values="0 0 0 0 0 0 0 0 0 0 0 0 0 0 0 0 0 0 127 0" result="hardAlpha"/>
<feOffset dx="-1" dy="-1"/>
<feGaussianBlur stdDeviation="1.5"/>
<feComposite in2="hardAlpha" operator="out"/>
<feColorMatrix type="matrix" values="0 0 0 0 0 0 0 0 0 0 0 0 0 0 0 0 0 0 0.2 0"/>
<feBlend mode="normal" in2="BackgroundImageFix" result="effect1_dropShadow_503_50"/>
<feBlend mode="normal" in="SourceGraphic" in2="effect1_dropShadow_503_50" result="shape"/>
</filter>
<clipPath id="clip0_503_50">
<rect width="2467" height="106" fill="white"/>
</clipPath>
</defs>
</svg>
