<svg width="768" height="55" viewBox="0 0 768 55" fill="none" xmlns="http://www.w3.org/2000/svg">
<g clip-path="url(#clip0_465_42)">
<rect width="768" height="55" fill="white"/>
<g filter="url(#filter0_d_465_42)">
<path d="M774.403 48.4963C774.759 60.1571 775.224 69.6969 775.445 69.6957L-6.03957 73.7751L-8.01317 9.19731C-7.92923 11.9439 -7.8222 12.0927 -5.74788 12.3855C-4.55257 12.5479 -3.02659 12.9544 -2.37012 13.2835C-1.70577 13.6126 1.83649 13.9604 5.53661 14.0567C12.6766 14.246 18.2127 15.3496 21.3521 17.2175C23.4557 18.4692 26.3858 19.1624 29.809 19.2264C31.8281 19.2592 32.8583 18.9213 34.5305 17.6644C39.5324 13.9274 45.8013 12.1791 46.9277 14.2166C47.6709 15.5765 53.4445 19.8066 55.8061 20.7293C57.7049 21.4712 57.8697 21.4462 59.9415 20.1101C68.8087 14.3915 75.0949 11.6647 79.4693 11.6419C81.2427 11.6326 81.9608 11.9132 82.493 12.8213C83.1751 13.9888 83.3572 14.0119 93.6891 14.1797C104.786 14.3579 106.445 14.2239 106.412 13.1253C106.375 11.9207 109.669 11.3686 114.114 11.8417C116.368 12.0758 118.205 12.0854 118.198 11.8542C118.175 11.1169 122.125 11.3903 126.082 12.4058L129.935 13.3881L131.49 12.4113C132.936 11.5025 136.397 11.0025 142.014 10.8865C143.204 10.861 146.165 10.778 148.599 10.7027C151.867 10.6037 153.252 10.7651 153.947 11.3254C154.755 11.9814 156.215 12.0268 164.734 11.6739L174.583 11.261L181.783 8.75596C185.737 7.3811 189.345 6.24901 189.786 6.24671C190.235 6.24436 191.733 7.00763 193.117 7.94499C195.299 9.42276 199.647 11.135 202.142 11.4979C202.577 11.5631 203.715 11.9186 204.665 12.2895C206.755 13.1075 211.22 12.6891 213.775 11.4323C215.507 10.5799 222.205 9.45098 225.625 9.43313C226.611 9.42799 229.341 10.2812 231.698 11.3291C236.693 13.5489 238.077 13.6959 238.025 11.9949C237.934 9.01707 244.96 7.27918 249.08 9.2625C250.873 10.1303 251.038 10.1294 252.913 9.31478C254.967 8.42213 259.49 7.32864 261.184 7.31979C261.728 7.31695 262.988 8.29833 263.987 9.50276C264.977 10.7072 267.167 12.7247 268.854 13.9882C271.661 16.094 272.211 16.2888 275.341 16.2869C279.188 16.2861 284.341 14.6833 286.781 12.7284C288.835 11.0791 290.471 11.2055 295.599 13.4197C299.713 15.191 300.007 15.2473 300.531 14.3385C301.257 13.0673 306.718 13.0291 310.619 14.2666L313.397 15.1485L316.903 13.5494C323.45 10.5659 324.618 10.3429 331.513 10.7936C339.057 11.2844 342.034 11.9869 347.522 14.5944C352.257 16.8444 355.474 17.1264 360.706 15.7497C362.309 15.3269 363.966 15.111 364.388 15.263C365.401 15.6384 375.263 14.3677 375.248 13.8666C375.226 13.1631 378.372 13.431 381.571 14.4022C385.462 15.5867 386.108 15.5834 386.694 14.3755C387.51 12.6989 389.278 13.3018 392.597 16.3929C395.964 19.5271 397.034 20.7215 398.362 20.8495C399.121 20.9227 399.972 20.6435 401.384 20.1783C401.743 20.0608 402.133 19.9335 402.571 19.7962C405.061 19.0073 407.962 17.7151 409.026 16.924L410.96 15.4826L415.49 18.4613L420.019 21.4401L425.505 20.3946C428.523 19.8198 431.324 19.1546 431.727 18.9115C433.337 17.9489 434.619 18.6073 437.39 21.8458C440.455 25.4202 442.454 26.3254 445.623 25.5715C446.617 25.335 448.669 25.1363 450.19 25.1284C452.271 25.1175 453.411 24.7646 454.852 23.692C455.892 22.9059 458.401 21.6879 460.414 20.9835C463.502 19.9023 464.931 19.7117 469.419 19.775C475.744 19.8673 476.904 19.3889 479.376 15.6652C480.295 14.2869 481.149 13.0824 481.288 12.9901C481.419 12.8979 483.786 13.4783 486.554 14.2735C491.445 15.6889 491.761 15.7162 498.268 15.2822C501.941 15.0365 505.525 14.6853 506.229 14.5033C507.176 14.2526 507.649 14.5152 508.089 15.5201C508.743 17.0348 514.084 22.8672 514.809 22.8634C515.062 22.8621 515.659 22.5409 516.128 22.1529C516.989 21.4399 518.248 21.3611 529.858 21.3197C535.533 21.2949 541.831 22.0476 541.853 22.7463C541.859 22.939 543.569 24.2265 545.653 25.6036L549.442 28.1091L555.061 27.7858C562.034 27.3928 562.832 27.2006 563.92 25.6673C564.752 24.5111 565.026 24.4615 568.93 24.7592C573.094 25.0748 575.85 26.0291 575.885 27.1614C575.939 28.9298 584.324 30.9053 586.644 29.698C587.342 29.3329 588.097 29.2567 588.467 29.5102C588.813 29.7494 590.988 31.2657 593.3 32.8778C597.086 35.5183 597.876 35.837 601.25 36.0893C603.312 36.2472 605.809 36.7113 606.792 37.1254C608.5 37.8394 608.743 37.7899 611.618 36.1605C618.336 32.3471 621.69 32.1898 628.424 35.3643C630.616 36.3938 632.63 37.0628 632.916 36.8493C633.193 36.6358 634.557 34.8263 635.946 32.8335C638.981 28.4465 639.503 27.9956 641.561 27.9849C642.435 27.9803 645.407 27.1889 648.152 26.2251L653.152 24.4737L656.483 25.3913C661.523 26.7819 665.078 27.0332 667.116 26.1406C668.073 25.7212 668.842 25.0858 668.831 24.7244C668.787 23.2837 679.239 19.1135 682.943 19.0941C684.717 19.0849 694.415 22.7547 697.698 24.6798C698.757 25.2959 700.513 25.7494 701.829 25.7425C704.414 25.729 708.227 24.0802 708.193 22.9912C708.178 22.4708 708.671 22.3574 709.954 22.5724C710.937 22.7408 712.284 22.9651 712.942 23.0677C713.607 23.175 715.376 23.0357 716.874 22.7628C719.139 22.3413 719.74 22.3912 720.414 23.0479C723.697 26.2501 728.898 28.5073 730.76 27.5385C731.466 27.1734 732.42 27.1588 733.904 27.4932C735.079 27.7569 737.576 27.9656 739.452 27.9558C742.124 27.9418 743.402 28.234 745.343 29.3178C749.689 31.7337 754.18 31.6331 754.103 29.1227C754.085 28.5445 754.488 27.8098 754.999 27.4891C756.407 26.6046 762.001 26.7634 764.759 27.7659C766.895 28.5403 767.464 28.571 769.102 27.9986C770.147 27.6413 771.619 27.33 772.376 27.3213C773.668 27.2953 773.795 28.6199 774.403 48.4963ZM774.808 35.964L775.839 69.6937L775.445 69.6957C775.665 69.6946 775.375 54.5153 774.808 35.964Z" fill="white"/>
</g>
<path d="M771.12 59.4634C772.969 71.3896 774.654 81.1492 774.872 81.1515L2.81102 73.1474L-7.43308 7.09984C-6.99739 9.90891 -6.87247 10.0627 -4.78417 10.3944C-3.58161 10.579 -2.02081 11.0184 -1.32955 11.365C-0.630507 11.7118 2.91607 12.1225 6.58643 12.2786C13.6694 12.5833 19.2842 13.7978 22.6277 15.7563C24.8681 17.0686 27.8538 17.8228 31.2463 17.9416C33.2466 18.0067 34.2217 17.6773 35.7135 16.4184C40.1785 12.6761 46.1514 10.9864 47.5267 13.0868C48.4361 14.4887 54.6871 18.903 57.1403 19.883C59.1128 20.671 59.2725 20.648 61.1492 19.3144C69.181 13.6065 75.0454 10.9169 79.3671 10.9617C81.1191 10.9799 81.865 11.2779 82.5078 12.2145C83.3321 13.4187 83.515 13.4452 93.7509 13.7776C104.744 14.1327 106.368 14.0216 106.193 12.898C106.002 11.6659 109.188 11.1528 113.643 11.7058C115.901 11.9801 117.718 12.0186 117.682 11.7821C117.565 11.0281 121.505 11.369 125.547 12.4688L129.482 13.533L130.894 12.5587C132.207 11.6522 135.565 11.195 141.103 11.1638C142.276 11.1563 145.193 11.1177 147.589 11.0786C150.807 11.0283 152.197 11.2149 152.956 11.7984C153.839 12.4817 155.288 12.5508 163.665 12.3228L173.349 12.0541L180.145 9.60541C183.878 8.26152 187.299 7.16041 187.735 7.16493C188.179 7.16953 189.757 7.97313 191.246 8.95294C193.593 10.4976 198.112 12.3158 200.624 12.7256C201.063 12.799 202.234 13.1802 203.22 13.5742C205.392 14.443 209.752 14.0847 212.117 12.8398C213.719 11.9954 220.196 10.9456 223.575 10.9807C224.548 10.9908 227.357 11.9055 229.822 13.0135C235.045 15.3605 236.432 15.5324 236.162 13.7927C235.69 10.7471 242.413 9.07994 246.741 11.1716C248.624 12.0866 248.788 12.0883 250.537 11.2848C252.453 10.4042 256.784 9.35685 258.458 9.37421C258.995 9.37978 260.367 10.4026 261.508 11.6495C262.643 12.8962 265.067 14.9928 266.896 16.3107C269.942 18.5072 270.511 18.7148 273.604 18.7616C277.407 18.8207 282.297 17.2625 284.457 15.302C286.276 13.648 287.91 13.8027 293.264 16.1461C297.559 18.021 297.856 18.0831 298.257 17.1623C298.812 15.874 304.206 15.9201 308.221 17.2459L311.081 18.1907L314.342 16.6107C320.431 13.6626 321.557 13.4529 328.432 14.0211C335.952 14.6403 338.986 15.4049 344.746 18.156C349.717 20.5298 352.933 20.8682 357.929 19.5424C359.459 19.1351 361.069 18.9402 361.507 19.1022C362.556 19.5018 372.143 18.3563 372.063 17.8438C371.952 17.1243 375.096 17.4472 378.383 18.4899C382.382 19.7614 383.02 19.7681 383.444 18.5424C384.036 16.8412 385.861 17.485 389.539 20.6967C393.271 23.9532 394.481 25.1909 395.811 25.3425C396.57 25.4291 397.376 25.157 398.712 24.7034C399.052 24.5888 399.422 24.4647 399.836 24.3313C402.197 23.5636 404.899 22.2877 405.849 21.4956L407.577 20.0522L412.437 23.1679L417.297 26.2836L422.586 25.3002C425.496 24.7596 428.18 24.1232 428.547 23.881C430.015 22.922 431.366 23.615 434.522 26.9689C438.012 30.6707 440.104 31.6272 443.14 30.9059C444.093 30.6796 446.095 30.5085 447.598 30.5241C449.654 30.5454 450.736 30.2023 452.023 29.1283C452.95 28.3408 455.274 27.1349 457.173 26.446C460.088 25.3889 461.476 25.2163 465.92 25.3509C472.185 25.5438 473.271 25.0729 475.236 21.3047C475.968 19.91 476.658 18.692 476.783 18.5998C476.901 18.5075 479.316 19.1378 482.154 19.9938C487.171 21.517 487.487 21.5498 493.864 21.2075C497.464 21.0136 500.962 20.7103 501.635 20.5352C502.538 20.2937 503.039 20.5695 503.604 21.6037C504.444 23.1623 510.474 29.2078 511.191 29.2152C511.44 29.2178 511.989 28.8988 512.403 28.5095C513.163 27.7941 514.397 27.733 525.87 27.8717C531.477 27.9347 537.8 28.8023 537.911 29.5169C537.942 29.714 539.798 31.0568 542.035 32.497L546.103 35.1174L551.616 34.8744C558.459 34.5813 559.223 34.3973 560.102 32.8467C560.776 31.6777 561.041 31.6313 564.938 31.9964C569.095 32.3839 571.943 33.4024 572.123 34.5606C572.403 36.3692 580.946 38.5194 583.085 37.3213C583.728 36.959 584.465 36.8928 584.863 37.1577C585.236 37.4076 587.581 38.9916 590.073 40.6756C594.155 43.4339 594.977 43.772 598.345 44.0825C600.404 44.276 602.933 44.7894 603.957 45.228C605.738 45.9846 605.972 45.9378 608.605 44.3168C614.756 40.5231 618.052 40.4145 625.117 43.7647C627.416 44.8513 629.494 45.5666 629.748 45.3527C629.995 45.1388 631.11 43.3102 632.228 41.2946C634.665 36.8572 635.124 36.4044 637.156 36.4255C638.021 36.4344 640.856 35.6717 643.447 34.7292L648.164 33.0167L651.575 34.0066C656.737 35.5067 660.284 35.819 662.184 34.9382C663.076 34.5244 663.755 33.8868 663.697 33.5172C663.469 32.0437 673.266 27.9434 676.926 27.9813C678.678 27.9995 688.737 31.9022 692.229 33.9213C693.356 34.5677 695.15 35.0586 696.451 35.0721C699.005 35.0986 702.562 33.4724 702.389 32.3586C702.306 31.8264 702.779 31.7181 704.076 31.9579C705.069 32.1453 706.43 32.3956 707.093 32.5107C707.764 32.6308 709.496 32.5159 710.941 32.2603C713.126 31.8647 713.727 31.9251 714.478 32.607C718.134 35.9316 723.566 38.3201 725.282 37.3588C725.934 36.9965 726.874 36.9964 728.385 37.3614C729.58 37.6493 732.076 37.9015 733.929 37.9208C736.569 37.9481 737.87 38.2667 739.928 39.4049C744.535 41.9423 748.961 41.9095 748.563 39.3419C748.471 38.7505 748.776 38.0058 749.239 37.6859C750.517 36.8036 756.068 37.0531 758.923 38.1208C761.135 38.9458 761.701 38.9861 763.246 38.4264C764.234 38.0775 765.65 37.7822 766.397 37.785C767.671 37.7785 767.966 39.1347 771.12 59.4634ZM769.911 46.6582L775.261 81.1555L774.872 81.1515C775.09 81.1537 772.854 65.6317 769.911 46.6582Z" fill="#0D0D0D"/>
</g>
<defs>
<filter id="filter0_d_465_42" x="-12.0132" y="2.24658" width="789.852" height="73.5286" filterUnits="userSpaceOnUse" color-interpolation-filters="sRGB">
<feFlood flood-opacity="0" result="BackgroundImageFix"/>
<feColorMatrix in="SourceAlpha" type="matrix" values="0 0 0 0 0 0 0 0 0 0 0 0 0 0 0 0 0 0 127 0" result="hardAlpha"/>
<feOffset dx="-1" dy="-1"/>
<feGaussianBlur stdDeviation="1.5"/>
<feComposite in2="hardAlpha" operator="out"/>
<feColorMatrix type="matrix" values="0 0 0 0 0 0 0 0 0 0 0 0 0 0 0 0 0 0 0.2 0"/>
<feBlend mode="normal" in2="BackgroundImageFix" result="effect1_dropShadow_465_42"/>
<feBlend mode="normal" in="SourceGraphic" in2="effect1_dropShadow_465_42" result="shape"/>
</filter>
<clipPath id="clip0_465_42">
<rect width="768" height="55" fill="white"/>
</clipPath>
</defs>
</svg>
