<svg width="1024" height="77" viewBox="0 0 1024 77" fill="none" xmlns="http://www.w3.org/2000/svg">
<g clip-path="url(#clip0_465_44)">
<rect width="1024" height="77" fill="white"/>
<g filter="url(#filter0_d_465_44)">
<path d="M1025.6 67.6786C1026.03 83.2732 1026.61 96.0319 1026.91 96.0313L-18.1294 98.2984L-20.5051 11.9353C-20.4041 15.6084 -20.2616 15.8079 -17.4889 16.2079C-15.8912 16.43 -13.8523 16.9798 -12.9758 17.4225C-12.0887 17.8653 -7.35336 18.3448 -2.40587 18.4887C7.14113 18.7709 14.5397 20.2693 18.7301 22.78C21.538 24.4623 25.4533 25.4012 30.0307 25.5008C32.7305 25.5529 34.1095 25.1053 36.3508 23.4313C43.0547 18.4545 51.4447 16.1421 52.9427 18.8713C53.9309 20.6929 61.6343 26.3731 64.7885 27.6165C67.3246 28.6163 67.5451 28.5836 70.321 26.8054C82.2017 19.1945 90.6189 15.5738 96.4686 15.5611C98.8401 15.556 99.7991 15.9341 100.507 17.1506C101.415 18.7146 101.658 18.7463 115.473 19.0128C130.312 19.2963 132.531 19.124 132.491 17.6547C132.446 16.0437 136.853 15.3188 142.795 15.9697C145.808 16.2918 148.265 16.3123 148.256 16.003C148.229 15.017 153.51 15.3987 158.797 16.7728L163.946 18.102L166.028 16.8022C167.966 15.5929 172.597 14.9384 180.108 14.8061C181.699 14.7769 185.66 14.6781 188.914 14.5872C193.285 14.4682 195.136 14.6897 196.063 15.4417C197.142 16.3223 199.093 16.3889 210.486 15.9518L223.659 15.4398L233.296 12.1194C238.59 10.297 243.419 8.79788 244.009 8.7966C244.61 8.79529 246.609 9.82206 248.457 11.0812C251.368 13.0662 257.176 15.3736 260.51 15.869C261.092 15.958 262.612 16.438 263.88 16.9379C266.672 18.0403 272.645 17.4989 276.066 15.8288C278.386 14.696 287.347 13.2137 291.921 13.2038C293.239 13.2009 296.886 14.353 300.034 15.7639C306.704 18.7526 308.554 18.9548 308.492 16.68C308.382 12.6976 317.784 10.4023 323.286 13.0713C325.679 14.239 325.901 14.2385 328.411 13.1568C331.161 11.9715 337.214 10.5277 339.48 10.5228C340.207 10.5212 341.888 11.8387 343.218 13.4534C344.538 15.068 347.459 17.7748 349.708 19.4713C353.454 22.2987 354.189 22.5613 358.374 22.5716C363.518 22.5862 370.416 20.4639 373.686 17.8597C376.44 15.6626 378.627 15.8383 385.476 18.8201C390.97 21.2055 391.362 21.282 392.066 20.0689C393.042 18.3719 400.346 18.3432 405.557 20.0139L409.268 21.2045L413.963 19.0805C422.73 15.1175 424.292 14.8241 433.511 15.455C443.597 16.142 447.575 17.0936 454.903 20.6028C461.226 23.6309 465.527 24.0211 472.529 22.2015C474.674 21.6426 476.89 21.3607 477.455 21.5657C478.807 22.0718 492 20.4128 491.982 19.7426C491.956 18.8018 496.162 19.1729 500.435 20.4847C505.633 22.0845 506.498 22.0827 507.286 20.4698C508.384 18.2312 510.746 19.0446 515.171 23.1916C519.661 27.3965 521.086 28.9981 522.862 29.1747C523.877 29.2756 525.015 28.9058 526.906 28.2895C527.387 28.1338 527.909 27.9651 528.494 27.7834C531.828 26.7386 535.713 25.0224 537.138 23.9688L539.731 22.0492L545.776 26.051L551.82 30.0528L559.16 28.6771C563.198 27.9207 566.947 27.0426 567.486 26.7192C569.644 25.4385 571.355 26.3242 575.047 30.6661C579.132 35.4584 581.8 36.677 586.042 35.6818C587.372 35.3696 590.116 35.1123 592.15 35.1079C594.933 35.1019 596.459 34.6346 598.391 33.2062C599.785 32.1591 603.145 30.5407 605.839 29.6069C609.973 28.1737 611.885 27.9247 617.885 28.0277C626.343 28.1769 627.896 27.5419 631.217 22.5725C632.452 20.7332 633.599 19.126 633.785 19.0032C633.961 18.8804 637.124 19.6662 640.821 20.7408C647.357 22.6535 647.779 22.6913 656.481 22.1375C661.395 21.8239 666.189 21.3689 667.131 21.1284C668.397 20.797 669.029 21.1501 669.614 22.4957C670.481 24.5238 677.601 32.3448 678.57 32.3427C678.907 32.3419 679.707 31.9149 680.336 31.3979C681.491 30.4481 683.174 30.3478 698.7 30.3399C706.289 30.3299 714.708 31.362 714.734 32.2964C714.741 32.5542 717.023 34.2828 719.804 36.1328L724.861 39.4987L732.376 39.0893C741.701 38.5921 742.769 38.3385 744.231 36.2924C745.348 34.7498 745.715 34.6845 750.933 35.0986C756.5 35.5376 760.183 36.8249 760.224 38.3393C760.29 40.7042 771.494 43.3801 774.601 41.7752C775.537 41.2898 776.546 41.191 777.04 41.5315C777.502 41.8527 780.404 43.8893 783.489 46.0543C788.541 49.6007 789.596 50.0302 794.106 50.3813C796.864 50.6009 800.201 51.2316 801.513 51.7894C803.795 52.7512 804.12 52.686 807.971 50.5188C816.97 45.4468 821.455 45.2502 830.448 49.5227C833.374 50.9083 836.066 51.8112 836.448 51.5268C836.819 51.2424 838.65 48.8282 840.517 46.1691C844.593 40.3151 845.293 39.7143 848.044 39.7083C849.214 39.7058 853.191 38.6596 856.866 37.3821L863.558 35.0604L868.009 36.301C874.744 38.1811 879.496 38.5316 882.225 37.3464C883.507 36.7894 884.537 35.9429 884.524 35.4596C884.471 33.5328 898.464 27.9989 903.418 27.9882C905.79 27.9831 918.743 32.9301 923.125 35.5177C924.54 36.3459 926.886 36.9595 928.646 36.9557C932.103 36.9482 937.208 34.7589 937.168 33.3025C937.149 32.6066 937.808 32.4569 939.524 32.7496C940.837 32.9788 942.638 33.2842 943.516 33.4241C944.406 33.5704 946.773 33.3912 948.776 33.0325C951.807 32.4781 952.61 32.5472 953.509 33.4282C957.886 37.7236 964.831 40.7632 967.325 39.4753C968.271 38.9899 969.546 38.9743 971.53 39.4275C973.1 39.785 976.438 40.0742 978.947 40.0688C982.52 40.061 984.228 40.4569 986.819 41.9141C992.621 45.1624 998.626 45.0463 998.534 41.6889C998.513 40.9156 999.055 39.9349 999.739 39.5081C1001.62 38.3311 1009.1 38.5662 1012.79 39.918C1015.64 40.9623 1016.4 41.0057 1018.6 40.247C1019.99 39.7735 1021.96 39.3632 1022.98 39.3546C1024.7 39.325 1024.87 41.0969 1025.6 67.6786ZM1026.19 50.9218L1027.43 96.0301L1026.91 96.0313C1027.2 96.0306 1026.88 75.7314 1026.19 50.9218Z" fill="white"/>
</g>
<path d="M1027.92 80.7513C1030.39 96.6994 1032.64 109.75 1032.93 109.753L0.509841 99.0498L-13.1889 10.7291C-12.6063 14.4854 -12.4392 14.6911 -9.64668 15.1346C-8.03858 15.3815 -5.95143 15.969 -5.02706 16.4326C-4.09227 16.8963 0.65032 17.4455 5.55843 17.6543C15.03 18.0617 22.5383 19.6857 27.0093 22.3047C30.0053 24.0596 33.9978 25.0682 38.5344 25.227C41.2092 25.314 42.5132 24.8735 44.508 23.1901C50.4788 18.1858 58.466 15.9263 60.3051 18.735C61.5211 20.6097 69.8802 26.5126 73.1606 27.8231C75.7983 28.8768 76.0119 28.8461 78.5214 27.0628C89.2618 19.43 97.1039 15.8334 102.883 15.8933C105.226 15.9176 106.223 16.3161 107.083 17.5685C108.185 19.1788 108.43 19.2142 122.117 19.6588C136.818 20.1336 138.989 19.985 138.756 18.4825C138.5 16.835 142.76 16.1488 148.717 16.8882C151.737 17.2551 154.167 17.3066 154.118 16.9903C153.962 15.982 159.231 16.438 164.636 17.9086L169.899 19.3317L171.786 18.0288C173.542 16.8166 178.032 16.2052 185.438 16.1636C187.006 16.1535 190.907 16.1018 194.111 16.0495C198.415 15.9823 200.273 16.2318 201.288 17.0122C202.47 17.9258 204.407 18.0183 215.608 17.7133L228.558 17.3541L237.646 14.0796C242.638 12.2825 247.212 10.8101 247.795 10.8161C248.389 10.8223 250.5 11.8969 252.491 13.2071C255.629 15.2727 261.672 17.704 265.031 18.252C265.618 18.3502 267.184 18.8599 268.503 19.3868C271.407 20.5486 277.238 20.0695 280.4 18.4047C282.543 17.2755 291.203 15.8718 295.722 15.9186C297.024 15.9321 300.78 17.1554 304.076 18.637C311.06 21.7755 312.915 22.0053 312.555 19.679C311.923 15.6063 320.913 13.3769 326.7 16.174C329.219 17.3976 329.438 17.3998 331.776 16.3253C334.338 15.1478 340.13 13.7472 342.369 13.7704C343.087 13.7779 344.921 15.1457 346.448 16.813C347.965 18.4802 351.206 21.2837 353.652 23.0461C357.726 25.9833 358.486 26.261 362.623 26.3236C367.709 26.4026 374.247 24.3189 377.136 21.6973C379.568 19.4855 381.752 19.6924 388.913 22.8261C394.656 25.3332 395.053 25.4163 395.59 24.1849C396.331 22.4621 403.545 22.5238 408.914 24.2967L412.738 25.5601L417.099 23.4473C425.241 19.505 426.747 19.2245 435.94 19.9844C445.997 20.8124 450.054 21.8348 457.756 25.5136C464.403 28.6881 468.704 29.1406 475.384 27.3676C477.431 26.823 479.584 26.5624 480.169 26.779C481.572 27.3133 494.392 25.7816 494.285 25.0962C494.136 24.1341 498.341 24.5658 502.736 25.9602C508.083 27.6605 508.937 27.6694 509.504 26.0304C510.295 23.7555 512.736 24.6164 517.655 28.9112C522.644 33.2659 524.263 34.921 526.041 35.1237C527.057 35.2395 528.134 34.8756 529.921 34.2691C530.376 34.1159 530.87 33.9499 531.424 33.7714C534.581 32.7449 538.194 31.0388 539.465 29.9795L541.775 28.0493L548.274 32.2157L554.773 36.3821L561.846 35.0672C565.737 34.3443 569.327 33.4933 569.817 33.1694C571.78 31.887 573.587 32.8137 577.807 37.2986C582.474 42.2487 585.271 43.5279 589.332 42.5633C590.605 42.2607 593.283 42.0318 595.293 42.0527C598.042 42.0812 599.488 41.6224 601.21 40.1862C602.45 39.1332 605.557 37.5205 608.097 36.5994C611.994 35.1857 613.851 34.9549 619.794 35.135C628.171 35.3929 629.623 34.7632 632.251 29.7242C633.23 27.8592 634.152 26.2304 634.32 26.1072C634.478 25.9838 637.707 26.8265 641.502 27.9712C648.211 30.0081 648.634 30.0519 657.161 29.5942C661.975 29.3349 666.653 28.9294 667.552 28.6953C668.76 28.3723 669.431 28.7411 670.186 30.124C671.31 32.2082 679.373 40.2925 680.331 40.3025C680.664 40.3059 681.398 39.8793 681.952 39.3587C682.968 38.402 684.618 38.3204 699.96 38.5058C707.459 38.5901 715.914 39.7502 716.062 40.7058C716.103 40.9694 718.585 42.765 721.577 44.6909L727.017 48.195L734.389 47.8701C743.539 47.4781 744.561 47.2321 745.737 45.1585C746.638 43.5954 746.992 43.5333 752.203 44.0215C757.763 44.5397 761.571 45.9017 761.811 47.4504C762.186 49.8689 773.61 52.7442 776.47 51.1421C777.331 50.6576 778.315 50.5691 778.848 50.9233C779.347 51.2575 782.482 53.3757 785.815 55.6276C791.273 59.316 792.373 59.7683 796.876 60.1834C799.63 60.4422 803.011 61.1287 804.381 61.7153C806.762 62.7269 807.075 62.6643 810.596 60.4967C818.822 55.4236 823.228 55.2785 832.677 59.7584C835.75 61.2115 838.529 62.168 838.869 61.882C839.199 61.5959 840.691 59.1507 842.186 56.4554C845.445 50.5216 846.058 49.916 848.776 49.9442C849.932 49.9562 853.724 48.9362 857.188 47.6759L863.496 45.3859L868.058 46.7096C874.96 48.7155 879.703 49.1331 882.244 47.9554C883.437 47.402 884.344 46.5495 884.267 46.0552C883.962 44.0848 897.063 38.6017 901.957 38.6524C904.3 38.6767 917.751 43.8955 922.421 46.5955C923.928 47.4599 926.327 48.1164 928.066 48.1344C931.481 48.1698 936.238 45.9953 936.007 44.5059C935.897 43.7942 936.529 43.6494 938.263 43.97C939.591 44.2206 941.41 44.5553 942.297 44.7093C943.195 44.8699 945.511 44.7163 947.443 44.3744C950.366 43.8455 951.168 43.9262 952.172 44.838C957.062 49.2838 964.325 52.4778 966.621 51.1922C967.492 50.7078 968.75 50.7077 970.769 51.1958C972.368 51.5808 975.705 51.9181 978.183 51.9437C981.713 51.9803 983.453 52.4063 986.205 53.9284C992.366 57.3215 998.285 57.2776 997.752 53.8441C997.63 53.0533 998.036 52.0575 998.656 51.6296C1000.37 50.4499 1007.79 50.7834 1011.61 52.2113C1014.56 53.3144 1015.32 53.3683 1017.39 52.6199C1018.71 52.1533 1020.6 51.7585 1021.6 51.7622C1023.3 51.7536 1023.7 53.567 1027.92 80.7513ZM1026.3 63.6278L1033.45 109.759L1032.93 109.753C1033.23 109.756 1030.23 88.9997 1026.3 63.6278Z" fill="#0D0D0D"/>
</g>
<defs>
<filter id="filter0_d_465_44" x="-24.5054" y="4.79663" width="1053.94" height="95.5017" filterUnits="userSpaceOnUse" color-interpolation-filters="sRGB">
<feFlood flood-opacity="0" result="BackgroundImageFix"/>
<feColorMatrix in="SourceAlpha" type="matrix" values="0 0 0 0 0 0 0 0 0 0 0 0 0 0 0 0 0 0 127 0" result="hardAlpha"/>
<feOffset dx="-1" dy="-1"/>
<feGaussianBlur stdDeviation="1.5"/>
<feComposite in2="hardAlpha" operator="out"/>
<feColorMatrix type="matrix" values="0 0 0 0 0 0 0 0 0 0 0 0 0 0 0 0 0 0 0.2 0"/>
<feBlend mode="normal" in2="BackgroundImageFix" result="effect1_dropShadow_465_44"/>
<feBlend mode="normal" in="SourceGraphic" in2="effect1_dropShadow_465_44" result="shape"/>
</filter>
<clipPath id="clip0_465_44">
<rect width="1024" height="77" fill="white"/>
</clipPath>
</defs>
</svg>
